#Comment line ignore any data following # character 
#Hierarchical Translation and Rotation (.htr) file 
[Header]	
#Header keywords are followed by a single value 
FileType HTR		#Single word string
DataType HTRS		#Translation followed by rotation and scale data
FileVersion 1		#integer
NumSegments 84		#integer
NumFrames 2		#integer
DataFrameRate 30		#integer, data frame rate in this file
EulerRotationOrder ZYX
CalibrationUnits mm
RotationUnits Degrees
GlobalAxisofGravity Y
BoneLengthAxis Y
ScaleFactor 1.00
[SegmentNames&Hierarchy]
#CHILD	PARENT
MASTER GLOBAL
root MASTER
chest root
L_mid_tent01 root
R_mid_tent01 root
spine01 root
Bip01_Neck chest
L_humerus chest
R_humerus chest
weapon_bone chest
Bip01_Head Bip01_Neck
eye_left_bone Bip01_Head
eye_right_bone Bip01_Head
L_forearm L_humerus
L_front_hand L_forearm
L_weapon_bone L_forearm
L_front_hand01_01 L_front_hand
L_front_hand02_01 L_front_hand
L_front_hand03_01 L_front_hand
L_front_hand01_02 L_front_hand01_01
L_front_hand02_02 L_front_hand02_01
L_front_hand03_02 L_front_hand03_01
R_forearm R_humerus
R_front_hand R_forearm
R_weapon_bone R_forearm
R_front_hand01_01 R_front_hand
R_front_hand02_01 R_front_hand
R_front_hand03_01 R_front_hand
R_front_hand01_02 R_front_hand01_01
R_front_hand02_02 R_front_hand02_01
R_front_hand03_02 R_front_hand03_01
null_rope01_connect L_mid_tent01
Rope1_Seg01 null_rope01_connect
Rope1_Seg02 Rope1_Seg01
Rope1_Seg03 Rope1_Seg02
Rope1_Seg04 Rope1_Seg03
Rope1_Seg05 Rope1_Seg04
Rope1_Seg06 Rope1_Seg05
Rope1_Seg07 Rope1_Seg06
Rope1_Seg09 Rope1_Seg07
L_mid_hand01 Rope1_Seg09
L_mid_hand02 Rope1_Seg09
L_mid_hand03 Rope1_Seg09
null_rope02_connect R_mid_tent01
Rope2_Seg01 null_rope02_connect
Rope2_Seg02 Rope2_Seg01
Rope2_Seg03 Rope2_Seg02
Rope2_Seg04 Rope2_Seg03
Rope2_Seg05 Rope2_Seg04
Rope2_Seg06 Rope2_Seg05
Rope2_Seg07 Rope2_Seg06
Rope2_Seg09 Rope2_Seg07
R_mid_hand01 Rope2_Seg09
R_mid_hand02 Rope2_Seg09
R_mid_hand03 Rope2_Seg09
spine02 spine01
spine03 spine02
pelvis spine03
null_rope03_connect pelvis
null_rope04_connect pelvis
Rope3_Seg01 null_rope03_connect
Rope3_Seg02 Rope3_Seg01
Rope3_Seg03 Rope3_Seg02
Rope3_Seg04 Rope3_Seg03
Rope3_Seg05 Rope3_Seg04
Rope3_Seg06 Rope3_Seg05
Rope3_Seg07 Rope3_Seg06
Rope3_Seg08 Rope3_Seg07
Rope3_Seg09 Rope3_Seg08
R_rear_hand01 Rope3_Seg09
R_rear_hand02 Rope3_Seg09
R_rear_hand03 Rope3_Seg09
Rope4_Seg01 null_rope04_connect
Rope4_Seg02 Rope4_Seg01
Rope4_Seg03 Rope4_Seg02
Rope4_Seg04 Rope4_Seg03
Rope4_Seg05 Rope4_Seg04
Rope4_Seg06 Rope4_Seg05
Rope4_Seg07 Rope4_Seg06
Rope4_Seg08 Rope4_Seg07
Rope4_Seg09 Rope4_Seg08
L_rear_hand01 Rope4_Seg09
L_rear_hand02 Rope4_Seg09
L_rear_hand03 Rope4_Seg09
[BasePosition]
#SegmentName Tx, Ty, Tz, Rx, Ry, Rz, BoneLength
MASTER 0.000000 0.000000 0.000000 -90.000000 0.000000 0.000000 10.000000 
root 0.000000 0.000000 0.000000 0.000000 0.000000 0.000000 10.000000 
chest 0.000000 0.000000 0.000000 0.000000 0.000000 0.000000 10.000000 
L_mid_tent01 0.000000 0.000000 0.000000 0.000000 0.000000 0.000000 10.000000 
R_mid_tent01 0.000000 0.000000 0.000000 0.000000 0.000000 0.000000 10.000000 
spine01 0.000000 0.000000 0.000000 0.000000 0.000000 0.000000 10.000000 
Bip01_Neck 0.000000 0.000000 0.000000 0.000000 0.000000 0.000000 10.000000 
L_humerus 0.000000 0.000000 0.000000 0.000000 0.000000 0.000000 10.000000 
R_humerus 0.000000 0.000000 0.000000 0.000000 0.000000 0.000000 10.000000 
weapon_bone 0.000000 0.000000 0.000000 0.000000 0.000000 0.000000 10.000000 
Bip01_Head 0.000000 0.000000 0.000000 0.000000 0.000000 0.000000 10.000000 
eye_left_bone 0.000000 0.000000 0.000000 0.000000 0.000000 0.000000 10.000000 
eye_right_bone 0.000000 0.000000 0.000000 0.000000 0.000000 0.000000 10.000000 
L_forearm 0.000000 0.000000 0.000000 0.000000 0.000000 0.000000 10.000000 
L_front_hand 0.000000 0.000000 0.000000 0.000000 0.000000 0.000000 10.000000 
L_weapon_bone 0.000000 0.000000 0.000000 0.000000 0.000000 0.000000 10.000000 
L_front_hand01_01 0.000000 0.000000 0.000000 0.000000 0.000000 0.000000 10.000000 
L_front_hand02_01 0.000000 0.000000 0.000000 0.000000 0.000000 0.000000 10.000000 
L_front_hand03_01 0.000000 0.000000 0.000000 0.000000 0.000000 0.000000 10.000000 
L_front_hand01_02 0.000000 0.000000 0.000000 0.000000 0.000000 0.000000 10.000000 
L_front_hand02_02 0.000000 0.000000 0.000000 0.000000 0.000000 0.000000 10.000000 
L_front_hand03_02 0.000000 0.000000 0.000000 0.000000 0.000000 0.000000 10.000000 
R_forearm 0.000000 0.000000 0.000000 0.000000 0.000000 0.000000 10.000000 
R_front_hand 0.000000 0.000000 0.000000 0.000000 0.000000 0.000000 10.000000 
R_weapon_bone 0.000000 0.000000 0.000000 0.000000 0.000000 0.000000 10.000000 
R_front_hand01_01 0.000000 0.000000 0.000000 0.000000 0.000000 0.000000 10.000000 
R_front_hand02_01 0.000000 0.000000 0.000000 0.000000 0.000000 0.000000 10.000000 
R_front_hand03_01 0.000000 0.000000 0.000000 0.000000 0.000000 0.000000 10.000000 
R_front_hand01_02 0.000000 0.000000 0.000000 0.000000 0.000000 0.000000 10.000000 
R_front_hand02_02 0.000000 0.000000 0.000000 0.000000 0.000000 0.000000 10.000000 
R_front_hand03_02 0.000000 0.000000 0.000000 0.000000 0.000000 0.000000 10.000000 
null_rope01_connect 0.000000 0.000000 0.000000 0.000000 0.000000 0.000000 10.000000 
Rope1_Seg01 0.000000 0.000000 0.000000 0.000000 0.000000 0.000000 10.000000 
Rope1_Seg02 0.000000 0.000000 0.000000 0.000000 0.000000 0.000000 10.000000 
Rope1_Seg03 0.000000 0.000000 0.000000 0.000000 0.000000 0.000000 10.000000 
Rope1_Seg04 0.000000 0.000000 0.000000 0.000000 0.000000 0.000000 10.000000 
Rope1_Seg05 0.000000 0.000000 0.000000 0.000000 0.000000 0.000000 10.000000 
Rope1_Seg06 0.000000 0.000000 0.000000 0.000000 0.000000 0.000000 10.000000 
Rope1_Seg07 0.000000 0.000000 0.000000 0.000000 0.000000 0.000000 10.000000 
Rope1_Seg09 0.000000 0.000000 0.000000 0.000000 0.000000 0.000000 10.000000 
L_mid_hand01 0.000000 0.000000 0.000000 0.000000 0.000000 0.000000 10.000000 
L_mid_hand02 0.000000 0.000000 0.000000 0.000000 0.000000 0.000000 10.000000 
L_mid_hand03 0.000000 0.000000 0.000000 0.000000 0.000000 0.000000 10.000000 
null_rope02_connect 0.000000 0.000000 0.000000 0.000000 0.000000 0.000000 10.000000 
Rope2_Seg01 0.000000 0.000000 0.000000 0.000000 0.000000 0.000000 10.000000 
Rope2_Seg02 0.000000 0.000000 0.000000 0.000000 0.000000 0.000000 10.000000 
Rope2_Seg03 0.000000 0.000000 0.000000 0.000000 0.000000 0.000000 10.000000 
Rope2_Seg04 0.000000 0.000000 0.000000 0.000000 0.000000 0.000000 10.000000 
Rope2_Seg05 0.000000 0.000000 0.000000 0.000000 0.000000 0.000000 10.000000 
Rope2_Seg06 0.000000 0.000000 0.000000 0.000000 0.000000 0.000000 10.000000 
Rope2_Seg07 0.000000 0.000000 0.000000 0.000000 0.000000 0.000000 10.000000 
Rope2_Seg09 0.000000 0.000000 0.000000 0.000000 0.000000 0.000000 10.000000 
R_mid_hand01 0.000000 0.000000 0.000000 0.000000 0.000000 0.000000 10.000000 
R_mid_hand02 0.000000 0.000000 0.000000 0.000000 0.000000 0.000000 10.000000 
R_mid_hand03 0.000000 0.000000 0.000000 0.000000 0.000000 0.000000 10.000000 
spine02 0.000000 0.000000 0.000000 0.000000 0.000000 0.000000 10.000000 
spine03 0.000000 0.000000 0.000000 0.000000 0.000000 0.000000 10.000000 
pelvis 0.000000 0.000000 0.000000 0.000000 0.000000 0.000000 10.000000 
null_rope03_connect 0.000000 0.000000 0.000000 0.000000 0.000000 0.000000 10.000000 
null_rope04_connect 0.000000 0.000000 0.000000 0.000000 0.000000 0.000000 10.000000 
Rope3_Seg01 0.000000 0.000000 0.000000 0.000000 0.000000 0.000000 10.000000 
Rope3_Seg02 0.000000 0.000000 0.000000 0.000000 0.000000 0.000000 10.000000 
Rope3_Seg03 0.000000 0.000000 0.000000 0.000000 0.000000 0.000000 10.000000 
Rope3_Seg04 0.000000 0.000000 0.000000 0.000000 0.000000 0.000000 10.000000 
Rope3_Seg05 0.000000 0.000000 0.000000 0.000000 0.000000 0.000000 10.000000 
Rope3_Seg06 0.000000 0.000000 0.000000 0.000000 0.000000 0.000000 10.000000 
Rope3_Seg07 0.000000 0.000000 0.000000 0.000000 0.000000 0.000000 10.000000 
Rope3_Seg08 0.000000 0.000000 0.000000 0.000000 0.000000 0.000000 10.000000 
Rope3_Seg09 0.000000 0.000000 0.000000 0.000000 0.000000 0.000000 10.000000 
R_rear_hand01 0.000000 0.000000 0.000000 0.000000 0.000000 0.000000 10.000000 
R_rear_hand02 0.000000 0.000000 0.000000 0.000000 0.000000 0.000000 10.000000 
R_rear_hand03 0.000000 0.000000 0.000000 0.000000 0.000000 0.000000 10.000000 
Rope4_Seg01 0.000000 0.000000 0.000000 0.000000 0.000000 0.000000 10.000000 
Rope4_Seg02 0.000000 0.000000 0.000000 0.000000 0.000000 0.000000 10.000000 
Rope4_Seg03 0.000000 0.000000 0.000000 0.000000 0.000000 0.000000 10.000000 
Rope4_Seg04 0.000000 0.000000 0.000000 0.000000 0.000000 0.000000 10.000000 
Rope4_Seg05 0.000000 0.000000 0.000000 0.000000 0.000000 0.000000 10.000000 
Rope4_Seg06 0.000000 0.000000 0.000000 0.000000 0.000000 0.000000 10.000000 
Rope4_Seg07 0.000000 0.000000 0.000000 0.000000 0.000000 0.000000 10.000000 
Rope4_Seg08 0.000000 0.000000 0.000000 0.000000 0.000000 0.000000 10.000000 
Rope4_Seg09 0.000000 0.000000 0.000000 0.000000 0.000000 0.000000 10.000000 
L_rear_hand01 0.000000 0.000000 0.000000 0.000000 0.000000 0.000000 10.000000 
L_rear_hand02 0.000000 0.000000 0.000000 0.000000 0.000000 0.000000 10.000000 
L_rear_hand03 0.000000 0.000000 0.000000 0.000000 0.000000 0.000000 10.000000 
#Beginning of Data. Separated by tabs
#Fr	Tx	Ty	Tz	Rx	Ry	Rz	SF
[MASTER]
25 -2749.713867 2546.879395 1522.281250 0.001660 0.001660 0.001660 4045.350586
26 -2750.226563 2543.380371 1523.636597 0.001660 0.001660 0.001660 4044.007568
[root]
25 20.013123 -118.897095 462.015350 -165.079971 -13.197247 -70.339355 477.488495
26 20.013123 -118.897095 462.015350 -165.372055 -13.135209 -70.181374 477.488495
[chest]
25 -84.512650 -34.090519 0.000000 -40.317467 -24.952412 -178.798965 91.129311
26 -84.512650 -34.090519 0.000000 -40.268452 -25.204506 -178.595749 91.129311
[L_mid_tent01]
25 27.298996 22.179041 -249.918747 -9.585169 14.470806 42.777245 252.381714
26 27.298992 22.179037 -249.918762 -9.196239 14.521964 44.159046 252.381729
[R_mid_tent01]
25 23.228794 24.509907 226.238495 179.233994 -20.342466 30.027517 228.744751
26 23.228794 24.509907 226.238495 179.531647 -20.645199 29.661911 228.744751
[spine01]
25 -0.361383 -0.195265 0.000000 0.001957 0.001296 22.960537 0.410763
26 -0.361383 -0.195265 0.000000 0.001957 0.001296 22.944387 0.410763
[Bip01_Neck]
25 165.484543 71.581718 0.000119 176.643677 -1.657967 43.431915 180.302734
26 165.484543 71.581718 0.000119 176.643677 -1.657967 43.431911 180.302734
[L_humerus]
25 -13.983130 -135.272980 -120.471481 167.194672 52.040634 -99.764336 181.680161
26 -13.983130 -135.272980 -120.471481 166.529968 53.957035 -100.595543 181.680161
[R_humerus]
25 -13.983309 -135.273102 125.287651 -142.766907 -29.366396 -141.034851 184.909012
26 -13.983309 -135.273102 125.287651 -141.495682 -31.095455 -142.014893 184.909012
[weapon_bone]
25 235.964890 -300.705902 0.000000 0.000000 -89.951546 -128.212341 382.234833
26 235.964890 -300.705902 0.000000 0.000000 -89.951546 -128.212341 382.234833
[Bip01_Head]
25 213.501617 185.556168 13.835978 -13.267275 2.156279 -43.867805 283.205688
26 213.482346 185.609818 13.143608 -12.045582 2.608718 -43.863274 283.193359
[eye_left_bone]
25 -24.626970 125.451866 -64.772606 0.000000 -90.000000 -99.840431 143.318359
26 -24.626970 125.451866 -64.772606 0.000000 -90.000000 -99.840431 143.318359
[eye_right_bone]
25 -24.626970 125.451866 64.327362 0.000000 -89.965736 80.156380 143.117676
26 -24.626970 125.451866 64.327362 0.000000 -89.965736 80.156380 143.117676
[L_forearm]
25 322.776093 0.000000 -0.000119 0.000184 -0.002340 -99.001801 322.776093
26 322.776093 0.000000 -0.000119 0.000190 -0.002340 -99.302818 322.776093
[L_front_hand]
25 241.149185 -0.042021 -3.300071 91.825363 -1.837149 -27.424799 241.171753
26 241.149185 -0.042021 -3.300071 51.152966 -1.834118 -27.422731 241.171753
[L_weapon_bone]
25 156.183838 0.000000 0.000000 0.000014 0.000007 0.000001 156.183838
26 156.183838 0.000000 0.000000 0.000014 0.000007 0.000001 156.183838
[L_front_hand01_01]
25 86.095154 20.947098 -0.655860 -0.366594 -0.477154 75.385574 88.609184
26 86.095154 20.947098 -0.655860 -0.366594 -0.477154 75.385574 88.609184
[L_front_hand02_01]
25 86.935165 -11.437475 24.513514 154.399811 -59.883842 -61.369587 91.046425
26 86.935165 -11.437475 24.513514 154.399796 -59.883835 -61.369587 91.046425
[L_front_hand03_01]
25 86.637497 -14.123976 -20.424902 -153.913849 58.118122 -62.702866 90.126129
26 86.637497 -14.123976 -20.424902 -153.913849 58.118122 -62.702866 90.126129
[L_front_hand01_02]
25 71.020905 -0.000179 0.000030 0.001468 0.001832 -12.590731 71.020905
26 71.020905 -0.000179 0.000030 0.001284 0.001965 -23.693609 71.020905
[L_front_hand02_02]
25 71.020927 -0.000119 0.000060 0.001468 0.001832 -12.590731 71.020927
26 71.020927 -0.000119 0.000060 0.001284 0.001965 -23.693609 71.020927
[L_front_hand03_02]
25 71.020905 -0.000060 0.000060 0.001468 0.001832 -12.590731 71.020905
26 71.020905 -0.000060 0.000060 0.001284 0.001965 -23.693609 71.020905
[R_forearm]
25 322.776428 -0.000060 0.000030 0.211087 0.023277 -97.560760 322.776428
26 322.776428 -0.000060 0.000030 0.209782 0.024916 -97.862869 322.776428
[R_front_hand]
25 238.847015 -0.006795 2.210259 -4.285286 -10.642872 -26.313366 238.857239
26 238.847015 -0.006795 2.210259 -4.004545 -10.642559 -26.311619 238.857239
[R_weapon_bone]
25 155.664093 0.002503 -0.000030 0.003487 0.001180 -90.988930 155.664078
26 155.664093 0.002503 -0.000030 0.003487 0.001180 -90.988930 155.664078
[R_front_hand01_01]
25 87.624611 14.231146 22.918642 -154.633499 -59.950619 61.746044 91.683487
26 87.624611 14.231146 22.918642 -154.633499 -59.950619 61.746044 91.683487
[R_front_hand02_01]
25 89.356956 14.367283 -19.491137 154.602661 58.302849 63.744389 92.579636
26 89.356956 14.367283 -19.491137 154.602661 58.302849 63.744389 92.579636
[R_front_hand03_01]
25 87.286232 -22.307278 -0.143439 0.162155 -0.423168 -75.767921 90.091743
26 87.286232 -22.307278 -0.143439 0.162155 -0.423168 -75.767921 90.091743
[R_front_hand01_02]
25 71.020905 0.000060 0.000119 0.002323 -0.000334 106.381721 71.020905
26 71.020905 0.000060 0.000119 0.002323 -0.000334 106.381714 71.020905
[R_front_hand02_02]
25 71.020844 -0.000030 -0.000119 0.002323 -0.000334 106.381721 71.020836
26 71.020844 -0.000030 -0.000119 0.002323 -0.000334 106.381714 71.020836
[R_front_hand03_02]
25 71.020905 0.000000 0.000030 0.002323 -0.000334 106.381721 71.020905
26 71.020905 0.000000 0.000030 0.002323 -0.000334 106.381714 71.020905
[null_rope01_connect]
25 328.732483 0.000000 -0.000238 -163.221603 -3.822483 -115.638985 328.732483
26 328.732483 0.000000 -0.000238 -163.327637 -3.693784 -116.786972 328.732483
[Rope1_Seg01]
25 -0.000017 -0.000022 0.000153 8.818605 -59.314095 104.172340 0.000155
26 -0.000017 -0.000021 0.000153 10.434172 -58.726166 102.283142 0.000155
[Rope1_Seg02]
25 139.999863 -0.000179 0.000000 0.127230 3.017029 2.137468 139.999863
26 139.999863 -0.000179 0.000000 0.066589 2.988461 2.299134 139.999863
[Rope1_Seg03]
25 139.999924 0.000060 -0.000060 0.210187 4.910128 3.476374 139.999924
26 139.999924 0.000060 -0.000060 0.134183 4.833226 3.725498 139.999924
[Rope1_Seg04]
25 139.999924 -0.000060 -0.000119 0.673232 11.685720 8.156128 139.999924
26 139.999924 -0.000060 -0.000119 0.610720 11.262589 8.687572 139.999924
[Rope1_Seg05]
25 139.999832 0.000119 -0.000060 2.327236 24.017805 18.432497 139.999832
26 139.999832 0.000119 -0.000060 2.551496 22.604271 18.856838 139.999832
[Rope1_Seg06]
25 139.999954 0.000119 -0.000060 -0.218696 2.952947 5.281651 139.999954
26 139.999954 0.000119 -0.000060 -0.132228 3.928670 4.902679 139.999954
[Rope1_Seg07]
25 139.999985 0.000060 0.000000 0.142782 6.941669 7.964174 139.999985
26 139.999985 0.000060 0.000000 0.172159 7.594846 7.795940 139.999985
[Rope1_Seg09]
25 121.602913 0.000119 -0.000089 -89.793175 -1.359789 0.847147 121.602913
26 121.602913 0.000119 -0.000089 -89.793175 -1.359789 0.847147 121.602913
[L_mid_hand01]
25 103.859421 1.038730 8.195221 121.913727 -62.028774 -29.342213 104.187431
26 103.859421 1.038730 8.195221 124.908318 -64.325752 -32.698227 104.187431
[L_mid_hand02]
25 105.572853 -4.139662 -10.864139 -162.798126 41.730766 -64.459190 106.211075
26 105.572853 -4.139662 -10.864139 -165.192184 42.484806 -68.028931 106.211075
[L_mid_hand03]
25 104.641464 17.579376 -3.913581 -8.147992 16.962017 67.754333 106.179977
26 104.641464 17.579376 -3.913581 -7.308150 17.330343 70.609535 106.179977
[null_rope02_connect]
25 328.732849 0.000179 -0.000119 -14.176659 19.907843 92.542625 328.732849
26 328.732849 0.000179 -0.000119 -14.455348 19.797462 92.067650 328.732849
[Rope2_Seg01]
25 0.000055 0.000198 0.000067 77.795097 72.455849 14.569265 0.000216
26 0.000055 0.000201 0.000069 76.661888 73.589653 13.195620 0.000220
[Rope2_Seg02]
25 139.999741 -0.000060 -0.000119 -0.984123 16.782997 -8.840765 139.999756
26 139.999741 -0.000060 -0.000119 -0.927409 15.627589 -7.634225 139.999756
[Rope2_Seg03]
25 140.000107 0.000030 0.000000 -3.442846 36.963924 -22.366751 140.000107
26 140.000107 0.000030 0.000000 -7.106122 38.698555 -21.458735 140.000107
[Rope2_Seg04]
25 139.999802 0.000000 -0.000060 158.405045 27.745516 -18.438057 139.999802
26 139.999802 0.000000 -0.000060 172.920258 32.905514 -17.626184 139.999802
[Rope2_Seg05]
25 139.999985 -0.000060 0.000119 -2.482561 -3.249993 2.259629 139.999985
26 139.999985 -0.000060 0.000119 -8.572629 -0.546410 3.410695 139.999985
[Rope2_Seg06]
25 139.999893 -0.000030 -0.000119 -4.039364 0.064323 1.355391 139.999893
26 139.999893 -0.000030 -0.000119 -9.318431 2.442644 2.180120 139.999893
[Rope2_Seg07]
25 139.999893 0.000060 -0.000060 -0.074998 -2.099820 0.942890 139.999893
26 139.999893 0.000060 -0.000060 -2.441137 -1.125726 1.420753 139.999893
[Rope2_Seg09]
25 121.338966 0.000089 -0.000060 33.793236 -1.359788 -0.847141 121.338966
26 121.338966 0.000089 -0.000060 33.793236 -1.359788 -0.847141 121.338966
[R_mid_hand01]
25 104.680779 11.144459 -10.335981 -32.351292 36.833485 46.151878 105.778534
26 104.680779 11.144459 -10.335981 -29.839296 38.782566 50.244781 105.778534
[R_mid_hand02]
25 104.070427 2.443552 8.231699 67.067337 -50.463928 18.609619 104.424065
26 104.070427 2.443552 8.231699 65.096054 -53.911869 21.097593 104.424065
[R_mid_hand03]
25 106.028137 -11.221827 -5.996406 -171.852570 13.596703 -55.941753 106.788818
26 106.028137 -11.221827 -5.996406 -172.771393 14.103966 -59.790901 106.788818
[spine02]
25 129.756927 0.001550 0.000119 -0.707433 -3.997540 2.164350 129.756927
26 129.756927 0.001550 0.000119 -0.674826 -4.002980 1.725226 129.756927
[spine03]
25 78.613976 0.081721 -4.898975 1.246807 4.089596 7.089966 78.766510
26 78.613976 0.081718 -4.898975 1.265913 4.084441 7.351724 78.766510
[pelvis]
25 169.435242 0.051022 0.000000 -0.000022 -0.191402 -4.915865 169.435257
26 169.435242 0.051022 0.000000 -0.000948 -0.191402 -4.361539 169.435257
[null_rope03_connect]
25 -1.257226 -2.466202 137.391083 -172.632950 -18.497927 -97.043732 137.418976
26 -1.257226 -2.466202 137.391083 -172.642426 -18.254978 -97.265076 137.418976
[null_rope04_connect]
25 -1.259640 -2.480268 -137.844437 -172.632950 -18.497927 -97.043732 137.872513
26 -1.259640 -2.480268 -137.844437 -172.642426 -18.254978 -97.265076 137.872513
[Rope3_Seg01]
25 0.000000 0.000000 0.000000 27.564919 22.370697 -49.173714 0.000000
26 0.000000 0.000000 0.000000 28.935244 24.314783 -48.748379 0.000000
[Rope3_Seg02]
25 139.999924 -0.000119 0.000060 6.105075 6.064429 -19.356838 139.999924
26 139.999924 -0.000119 0.000060 5.810924 4.954839 -17.568266 139.999924
[Rope3_Seg03]
25 139.999924 -0.000119 0.000119 -2.543124 7.108675 -46.120590 139.999924
26 139.999924 -0.000119 0.000119 -1.225271 6.027548 -45.352295 139.999924
[Rope3_Seg04]
25 139.999924 0.000119 0.000000 -12.124997 3.987765 -28.942127 139.999924
26 139.999924 0.000119 0.000000 -13.189244 3.087472 -32.630070 139.999924
[Rope3_Seg05]
25 139.999924 -0.000238 0.000060 -13.839533 7.325473 -14.906140 139.999924
26 139.999924 -0.000238 0.000060 -15.840329 7.985863 -15.594700 139.999924
[Rope3_Seg06]
25 139.999893 -0.000119 -0.000060 -23.245850 14.722774 -16.232878 139.999893
26 139.999893 -0.000119 -0.000060 -22.639050 15.083176 -14.287480 139.999893
[Rope3_Seg07]
25 139.999771 0.000060 -0.000119 -13.719288 13.114281 -6.798775 139.999771
26 139.999771 0.000060 -0.000119 -11.848412 11.890037 -5.346429 139.999771
[Rope3_Seg08]
25 139.999985 -0.000060 0.000000 -5.303063 7.182895 -1.894087 139.999985
26 139.999985 -0.000060 0.000000 -4.695073 6.495716 -1.553965 139.999985
[Rope3_Seg09]
25 90.185997 -0.000179 -0.000060 89.793228 -1.359877 -0.847183 90.185997
26 90.185997 -0.000179 -0.000060 89.793228 -1.359877 -0.847183 90.185997
[R_rear_hand01]
25 103.366196 -6.073594 -10.757982 -178.843704 -16.881861 -59.893105 104.101845
26 103.366196 -6.073594 -10.757982 179.543945 -16.381956 -62.968853 104.101845
[R_rear_hand02]
25 100.509819 12.039542 -7.992327 -25.326174 30.360598 49.900978 101.543350
26 100.509819 12.039542 -7.992327 -23.183100 31.959585 54.045399 101.543350
[R_rear_hand03]
25 101.539970 5.215704 5.435467 80.575394 -52.733402 11.389222 101.819031
26 101.539970 5.215704 5.435467 79.632996 -56.564884 12.543688 101.819031
[Rope4_Seg01]
25 -0.000019 -0.000133 -0.000153 -78.028679 -10.892056 -19.785030 0.000203
26 -0.000019 -0.000139 -0.000153 -86.903511 -12.457467 -19.818834 0.000207
[Rope4_Seg02]
25 139.999985 0.000060 0.000119 -107.276787 -5.440681 -29.846550 139.999985
26 139.999985 0.000060 0.000119 -99.722610 -1.120568 -28.222233 139.999985
[Rope4_Seg03]
25 139.999924 0.000000 -0.000238 42.646339 79.866547 59.588135 139.999924
26 139.999924 0.000000 -0.000238 43.066387 80.313545 60.037895 139.999924
[Rope4_Seg04]
25 139.999985 0.000000 0.000119 1.984642 15.397499 4.763412 139.999985
26 139.999985 0.000000 0.000119 2.291340 16.894033 5.269414 139.999985
[Rope4_Seg05]
25 139.999802 -0.000060 -0.000119 2.319647 8.095877 1.013853 139.999802
26 139.999802 -0.000060 -0.000119 2.486086 8.336181 1.085593 139.999802
[Rope4_Seg06]
25 139.999924 0.000000 0.000060 7.459166 13.576594 0.261946 139.999924
26 139.999924 0.000000 0.000060 7.370867 13.030572 0.365770 139.999924
[Rope4_Seg07]
25 139.999802 0.000000 0.000000 14.133762 13.235180 -0.989213 139.999802
26 139.999802 0.000000 0.000000 12.407353 11.796045 -0.717089 139.999802
[Rope4_Seg08]
25 139.999924 0.000000 0.000119 17.604170 8.704497 -2.844532 139.999924
26 139.999924 0.000000 0.000119 14.354230 7.775684 -2.185590 139.999924
[Rope4_Seg09]
25 90.185791 0.000060 0.000060 -135.617828 2.228885 0.850567 90.185791
26 90.185791 0.000060 0.000060 -135.617828 2.228885 0.850567 90.185791
[L_rear_hand01]
25 101.696655 -8.392275 -7.654577 -17.798229 -35.006115 116.214783 102.329041
26 101.696655 -8.392275 -7.654577 -16.229376 -35.681824 113.503792 102.329041
[L_rear_hand02]
25 102.726799 -1.568258 5.773216 76.414986 65.052948 163.777969 102.900848
26 102.726799 -1.568258 5.773216 75.121277 67.292465 162.363373 102.900848
[L_rear_hand03]
25 104.552910 9.721220 -10.420293 -174.535919 -24.090160 -113.787468 105.519653
26 104.552910 9.721220 -10.420293 -175.569031 -24.291683 -111.264931 105.519653
